Coordinates
version=1
nRows=32
nColumns=18
inDegrees=yes

Units are S.I. units (second, meters, Newtons, ...)
If the header above contains a line with 'inDegrees', this indicates whether rotational values are in degrees (yes) or radians (no).

endheader
time	ground_thorax_rot_x	ground_thorax_rot_y	ground_thorax_rot_z	ground_thorax_tx	ground_thorax_ty	ground_thorax_tz	clav_prot	clav_elev	scapula_abduction	scapula_elevation	scapula_upward_rot	scapula_winging	plane_elv	shoulder_elv	axial_rot	elbow_flexion	pro_sup
      3.33000000	      1.37797766	     -7.77227600	    -11.41879368	      0.00000000	      0.00000000	      0.00000000	    -18.32322375	     -3.99038186	     -4.83581485	     -3.69819737	     13.54743330	      4.70788930	    -23.06259866	     16.43035929	     42.34815484	      0.00000000	     34.32000000
      3.34000000	      1.41174165	     -7.64736460	    -11.44446221	      0.00000000	      0.00000000	      0.00000000	    -18.38517254	     -3.95388576	     -5.01285178	     -3.64681172	     13.44565373	      4.73378044	    -22.17739036	     16.60684422	     40.25844515	      0.00000000	     34.32000000
      3.35000000	      1.37404587	     -7.53253009	    -11.36700215	      0.00000000	      0.00000000	      0.00000000	    -18.39792474	     -3.95652552	     -5.10906486	     -3.61587183	     13.31786400	      4.76947727	    -22.14917026	     16.67806542	     39.74242522	      0.00000000	     34.32000000
      3.36000000	      1.47928371	     -7.57772106	    -11.34604256	      0.00000000	      0.00000000	      0.00000000	    -18.36215638	     -3.79552222	     -4.86715021	     -3.58887690	     13.69092547	      4.62049915	    -23.83507787	     15.72999843	     49.26371240	      0.00000000	     34.32000000
      3.37000000	      1.47614765	     -7.48508638	    -11.28782653	      0.00000000	      0.00000000	      0.00000000	    -18.41187006	     -3.83051525	     -5.03532491	     -3.57817397	     13.53812932	      4.67803085	    -22.76945137	     16.19259755	     44.28323178	      0.00000000	     34.32000000
      3.38000000	      1.41332048	     -7.51155793	    -11.31235412	      0.00000000	      0.00000000	      0.00000000	    -18.41608521	     -3.84155406	     -5.02047634	     -3.59563141	     13.57180199	      4.67367850	    -22.75610423	     16.12829358	     44.30316197	      0.00000000	     34.32000000
      3.39000000	      1.24513990	     -7.53120682	    -11.36163362	      0.00000000	      0.00000000	      0.00000000	    -18.36974390	     -3.99026076	     -4.93524860	     -3.69254797	     13.51705669	      4.72362301	    -22.86127269	     16.12671679	     43.44201381	      0.00000000	     34.32000000
      3.40000000	      1.23345175	     -7.44865142	    -11.32284329	      0.00000000	      0.00000000	      0.00000000	    -18.37653322	     -3.89569663	     -4.95979088	     -3.62518392	     13.53448493	      4.69243044	    -22.73157393	     16.13083883	     42.97320683	      0.00000000	     34.32000000
      3.41000000	      1.22404960	     -7.40633351	    -11.40985906	      0.00000000	      0.00000000	      0.00000000	    -18.35555137	     -3.88671735	     -4.89168729	     -3.63218456	     13.59155349	      4.67155166	    -22.20588421	     16.15389539	     41.83986107	      0.00000000	     34.32000000
      3.42000000	      1.22352738	     -7.36587696	    -11.36528584	      0.00000000	      0.00000000	      0.00000000	    -18.30096924	     -3.81856881	     -4.80881254	     -3.57887617	     13.59763583	      4.64075807	    -22.13689398	     16.17651282	     41.39651113	      0.00000000	     34.32000000
      3.43000000	      1.28618084	     -7.40576739	    -11.37124018	      0.00000000	      0.00000000	      0.00000000	    -18.22108448	     -3.75949342	     -4.52772707	     -3.59874039	     13.86176718	      4.54182851	    -22.88121778	     16.05446197	     41.96111616	      0.00000000	     34.32000000
      3.44000000	      1.37667398	     -7.32887561	    -11.38843074	      0.00000000	      0.00000000	      0.00000000	    -18.23719191	     -3.82718991	     -4.62850542	     -3.61173171	     13.71048202	      4.60297420	    -22.06587628	     16.46094110	     39.76791317	      0.00000000	     34.32000000
      3.45000000	      1.37217087	     -7.27782796	    -11.34403642	      0.00000000	      0.00000000	      0.00000000	    -18.22843601	     -3.83240018	     -4.60670523	     -3.61754367	     13.71927120	      4.60093392	    -22.05204643	     16.39968229	     39.78517066	      0.00000000	     34.32000000
      3.46000000	      1.42702802	     -7.40396286	    -11.29842316	      0.00000000	      0.00000000	      0.00000000	    -18.14739758	     -3.62639828	     -4.41711297	     -3.49935630	     13.88469389	      4.48448153	    -22.11016197	     16.09885731	     40.34274858	      0.00000000	     34.32000000
      3.47000000	      1.26165032	     -7.27789885	    -11.39331653	      0.00000000	      0.00000000	      0.00000000	    -18.27490686	     -3.79451049	     -4.62405005	     -3.62377714	     13.84445780	      4.56575814	    -22.00850050	     16.12771848	     38.14254861	      0.00000000	     34.32000000
      3.48000000	      1.44065631	     -7.37656531	    -11.30930157	      0.00000000	      0.00000000	      0.00000000	    -18.27217069	     -3.39901232	     -4.45930338	     -3.43512776	     14.27912971	      4.33963507	    -23.57844923	     14.65748726	     51.78894122	      0.00000000	     34.32000000
      3.49000000	      1.31593966	     -7.19999674	    -11.33127655	      0.00000000	      0.00000000	      0.00000000	    -18.35177169	     -3.59457112	     -4.68547505	     -3.52924534	     14.05195954	      4.46758872	    -22.78007243	     15.12462000	     47.21947278	      0.00000000	     34.32000000
      3.50000000	      1.27087217	     -7.18523944	    -11.37980563	      0.00000000	      0.00000000	      0.00000000	    -18.27706866	     -3.69254494	     -4.59898811	     -3.56976810	     13.93545701	      4.51308236	    -22.16706888	     15.40500038	     45.26385496	      0.00000000	     34.32000000
      3.51000000	      1.25996941	     -7.22640683	    -11.26650290	      0.00000000	      0.00000000	      0.00000000	    -18.15370612	     -3.66091570	     -4.43230009	     -3.52053084	     13.86361760	      4.50106055	    -22.39099714	     15.57425968	     45.00439114	      0.00000000	     34.32000000
      3.52000000	      1.22536734	     -7.21189788	    -11.29205033	      0.00000000	      0.00000000	      0.00000000	    -18.15348841	     -3.64585975	     -4.41711051	     -3.51711838	     13.89476579	      4.48861432	    -22.38120774	     15.51665182	     45.01705240	      0.00000000	     34.32000000
      3.53000000	      1.46338024	     -7.26933502	    -11.27062017	      0.00000000	      0.00000000	      0.00000000	    -18.18874207	     -3.27231676	     -4.27166390	     -3.36588744	     14.40081113	      4.25808613	    -23.39928006	     14.76241684	     49.93392368	      0.00000000	     34.32000000
      3.54000000	      1.42616745	     -7.15196949	    -11.31328637	      0.00000000	      0.00000000	      0.00000000	    -18.30535280	     -3.29409773	     -4.59515226	     -3.33420280	     14.19227463	      4.33849214	    -22.00713838	     14.96728756	     46.81368253	      0.00000000	     34.32000000
      3.55000000	      1.27940361	     -7.12241876	    -11.23481093	      0.00000000	      0.00000000	      0.00000000	    -18.26718696	     -3.41972557	     -4.62727186	     -3.37049100	     13.97168539	      4.42446541	    -22.09856021	     15.11536785	     46.07104000	      0.00000000	     34.32000000
      3.56000000	      1.26415705	     -6.95769852	    -11.30623461	      0.00000000	      0.00000000	      0.00000000	    -18.43896716	     -3.49179597	     -4.82885564	     -3.47085372	     14.11147458	      4.43752801	    -22.58913808	     15.01356225	     46.63305637	      0.00000000	     34.32000000
      3.57000000	      1.47888279	     -7.15553640	    -11.25893399	      0.00000000	      0.00000000	      0.00000000	    -18.26439655	     -3.22657258	     -4.40343054	     -3.34051103	     14.42231702	      4.25286327	    -23.18532130	     14.77319220	     49.83434461	      0.00000000	     34.32000000
      3.58000000	      1.42697615	     -7.16138439	    -11.25250228	      0.00000000	      0.00000000	      0.00000000	    -18.20569025	     -3.28526971	     -4.31082274	     -3.37128562	     14.37994139	      4.26998889	    -23.15236417	     14.90136786	     48.74001799	      0.00000000	     34.32000000
      3.59000000	      1.41133650	     -7.08305394	    -11.26138134	      0.00000000	      0.00000000	      0.00000000	    -18.19491872	     -3.27084660	     -4.30167577	     -3.35687396	     14.36922129	      4.26697925	    -23.14009738	     14.87536775	     48.74496463	      0.00000000	     34.32000000
      3.60000000	      1.40764490	     -6.98965222	    -11.21752177	      0.00000000	      0.00000000	      0.00000000	    -18.21154573	     -3.22423619	     -4.53641905	     -3.23685186	     14.04194278	      4.34218967	    -21.60270082	     15.37779983	     44.08920244	      0.00000000	     34.32000000
      3.61000000	      1.30699518	     -6.88894966	    -11.15887702	      0.00000000	      0.00000000	      0.00000000	    -18.22793480	     -3.30172571	     -4.60307586	     -3.27160837	     13.94548748	      4.39172991	    -21.84710007	     15.43103363	     44.27742103	      0.00000000	     34.32000000
      3.62000000	      1.30291031	     -6.85709204	    -11.15347156	      0.00000000	      0.00000000	      0.00000000	    -18.23769285	     -3.31066852	     -4.59190404	     -3.29040295	     13.98948227	      4.38430311	    -21.84541874	     15.45515450	     44.28983797	      0.00000000	     34.32000000
      3.63000000	      1.46080051	     -6.97518131	    -11.20756594	      0.00000000	      0.00000000	      0.00000000	    -18.13271639	     -3.28736935	     -4.15774810	     -3.37959956	     14.42041351	      4.24740098	    -23.21717489	     15.29762292	     46.66096234	      0.00000000	     34.32000000
      3.64000000	      1.37359529	     -7.00874237	    -11.23481492	      0.00000000	      0.00000000	      0.00000000	    -18.08199971	     -3.48857528	     -4.23782366	     -3.43424712	     14.05100573	      4.39086867	    -22.14722900	     15.74131823	     44.31599354	      0.00000000	     34.32000000
